<?xml version="1.0" encoding="UTF-8"?>
<svg width="24px" height="31px" viewBox="0 0 24 31" version="1.1" xmlns="http://www.w3.org/2000/svg" xmlns:xlink="http://www.w3.org/1999/xlink">
    <!-- Generator: Sketch 55.2 (78181) - https://sketchapp.com -->
    <title>favicon</title>
    <desc>Created with Sketch.</desc>
    <g id="Page-1" stroke="none" stroke-width="1" fill="none" fill-rule="evenodd">
        <g id="Artboard" transform="translate(-200.000000, -173.000000)" fill="#FFFFFF" fill-rule="nonzero">
            <g id="favicon" transform="translate(200.000000, 173.000000)">
                <path d="M15.34,13.67 L15,13.31 L15,13.31 L14.64,13 C13.9108277,13.8334099 12.8573682,14.3114629 11.75,14.3114629 C10.6426318,14.3114629 9.58917231,13.8334099 8.86,13 L8.51,13.36 L8.51,13.36 L8.16,13.72 C8.95576732,14.4253169 9.43794558,15.4184602 9.5,16.48 C9.45111209,17.5591857 8.96779333,18.5727123 8.16,19.29 L8.86,20 C9.59091434,19.1695782 10.6437287,18.6936981 11.75,18.6936981 C12.8562713,18.6936981 13.9090857,19.1695782 14.64,20 L15.34,19.29 C14.5322067,18.5727123 14.0488879,17.5591857 14,16.48 C14.0408162,15.3988114 14.5255695,14.3822765 15.34,13.67 L15.34,13.67 Z" id="Path"></path>
                <path d="M23.72,12.24 L23.72,12.06 C23.72,11.67 23.72,11.29 23.72,10.91 C23.72,10.53 23.67,10.19 23.63,9.85 C23.5858233,9.38516137 23.4605993,8.93164731 23.26,8.51 C23.0753055,8.09198124 22.8141614,7.71213529 22.49,7.39 C22.1619989,7.0662172 21.7750307,6.80823843 21.35,6.63 C20.8791499,6.44380279 20.3762669,6.35206063 19.87,6.36 C19.3669136,6.3512659 18.8671462,6.44305992 18.4,6.63 C17.9749693,6.80823843 17.5880011,7.0662172 17.26,7.39 C16.935864,7.71431202 16.6717791,8.09351087 16.48,8.51 C16.2893501,8.93529128 16.1645862,9.38713891 16.11,9.85 C16.11,10.19 16.04,10.54 16.02,10.91 C16,11.28 16.02,11.67 16.02,12.06 L16.02,12.24 L23.72,12.24 Z" id="Path"></path>
                <circle id="Oval" cx="19.82" cy="3.16" r="3.16"></circle>
                <path d="M7.75,12.24 C7.75,12.18 7.75,12.12 7.75,12.06 C7.75,11.67 7.75,11.29 7.75,10.91 C7.75,10.53 7.75,10.19 7.67,9.85 C7.61682182,9.38568506 7.48847965,8.93311004 7.29,8.51 C7.09933331,8.09037098 6.83132729,7.71041307 6.5,7.39 C6.17199886,7.0662172 5.78503072,6.80823843 5.36,6.63 C4.89263136,6.44383127 4.39302017,6.35206595 3.89,6.36 C3.38373305,6.35206063 2.88085014,6.44380279 2.41,6.63 C1.98496928,6.80823843 1.59800114,7.0662172 1.27,7.39 C0.945838615,7.71213529 0.684694527,8.09198124 0.5,8.51 C0.299400721,8.93164731 0.174176688,9.38516137 0.13,9.85 C0.13,10.19 0.05,10.54 0.03,10.91 C0.01,11.28 0.03,11.67 0.03,12.06 L0.03,12.24 L7.75,12.24 Z" id="Path"></path>
                <circle id="Oval" cx="3.85" cy="3.16" r="3.16"></circle>
                <path d="M7.75,30.17 C7.75,30.11 7.75,30.05 7.75,29.99 C7.75,29.6033333 7.75,29.2233333 7.75,28.85 C7.75,28.47 7.75,28.12 7.67,27.78 C7.61545011,27.3159573 7.48716922,26.8635984 7.29,26.44 C7.10283903,26.0263278 6.84191667,25.650193 6.52,25.33 C6.19716385,24.9999317 5.80884616,24.7410533 5.38,24.57 C4.91468026,24.3758657 4.41410382,24.2805179 3.91,24.29 C3.40266229,24.2805805 2.89883391,24.3758994 2.43,24.57 C2.00115384,24.7410533 1.61283615,24.9999317 1.29,25.33 C0.960926673,25.6485106 0.693151194,26.0247521 0.5,26.44 C0.301474337,26.8624173 0.176351615,27.3155645 0.13,27.78 C0.13,28.12 0.05,28.47 0.03,28.85 C0.01,29.23 0,29.6 0,30 L0,30.18 L7.75,30.17 Z" id="Path"></path>
                <circle id="Oval" cx="3.85" cy="21.09" r="3.16"></circle>
                <path d="M23.43,30.17 L23.43,30 C23.43,29.61 23.43,29.23 23.43,28.86 C23.43,28.49 23.38,28.13 23.34,27.79 C23.3042587,27.32394 23.1892762,26.867392 23,26.44 C22.812839,26.0263278 22.5519167,25.650193 22.23,25.33 C21.87923,24.9914117 21.4597464,24.7322186 21,24.57 C20.5311661,24.3758994 20.0273377,24.2805805 19.52,24.29 C19.0157967,24.2793385 18.5149787,24.3747324 18.05,24.57 C17.6211538,24.7410533 17.2328362,24.9999317 16.91,25.33 C16.5886938,25.6528882 16.3249006,26.0282863 16.13,26.44 C15.9405042,26.8657057 15.8157895,27.3173754 15.76,27.78 C15.76,28.12 15.69,28.47 15.67,28.85 C15.65,29.23 15.67,29.6 15.67,29.99 L15.67,30.17 L23.43,30.17 Z" id="Path"></path>
                <circle id="Oval" cx="19.53" cy="21.09" r="3.16"></circle>
            </g>
        </g>
    </g>
</svg>